# Blender 4.4.3
# www.blender.org
o Circle.004
v 0.001928 0.594786 -0.427890
v 0.001928 1.000154 0.026604
v -0.057478 0.996260 0.022238
v -0.114600 0.984726 0.009306
v -0.167245 0.965996 -0.011694
v -0.213388 0.940789 -0.039955
v -0.251257 0.910075 -0.074391
v -0.279396 0.875034 -0.113679
v -0.296724 0.837012 -0.156309
v -0.302575 0.797470 -0.200643
v -0.296724 0.757928 -0.244977
v -0.279396 0.719906 -0.287607
v -0.251257 0.684865 -0.326895
v -0.213388 0.654151 -0.361331
v -0.167245 0.628944 -0.389592
v -0.114600 0.610214 -0.410592
v -0.057478 0.598680 -0.423524
v -0.057478 0.999764 0.019113
v 0.001928 1.003658 0.023479
v -0.114600 0.988230 0.006181
v -0.167245 0.969500 -0.014819
v -0.213388 0.944293 -0.043080
v -0.251257 0.913579 -0.077516
v -0.279396 0.878538 -0.116804
v -0.296724 0.840516 -0.159434
v -0.302575 0.800974 -0.203768
v -0.296724 0.761432 -0.248102
v -0.279396 0.723410 -0.290732
v -0.251257 0.688369 -0.330020
v -0.213388 0.657655 -0.364456
v -0.167245 0.632448 -0.392717
v -0.114600 0.613718 -0.413717
v -0.057478 0.602184 -0.426649
v 0.001928 0.598290 -0.431015
vn -0.0000 -0.7463 0.6656
vn -0.0000 0.7463 -0.6656
vn -0.9569 0.1932 0.2166
vn -0.2903 -0.6370 -0.7142
vn -0.9952 0.0652 0.0731
vn -0.0980 0.6624 0.7427
vn -0.0980 -0.6624 -0.7427
vn -0.9952 -0.0652 -0.0731
vn -0.2903 0.6370 0.7142
vn 1.0000 -0.0000 -0.0000
vn -0.9569 -0.1932 -0.2166
vn -0.4714 0.5870 0.6582
vn -0.8819 -0.3138 -0.3518
vn -0.6344 0.5145 0.5769
vn -0.7730 -0.4223 -0.4734
vn -0.7730 0.4223 0.4734
vn -0.6344 -0.5145 -0.5769
vn -0.8819 0.3138 0.3518
vn -0.4714 -0.5870 -0.6582
vt 0.000000 0.000000
s 0
f 2/1/1 7/1/1 11/1/1
f 20/1/2 32/1/2 28/1/2
f 9/1/3 8/1/3 24/1/3
f 17/1/4 16/1/4 32/1/4
f 10/1/5 9/1/5 25/1/5
f 3/1/6 2/1/6 19/1/6
f 1/1/7 17/1/7 33/1/7
f 11/1/8 10/1/8 26/1/8
f 4/1/9 3/1/9 18/1/9
f 2/1/10 1/1/10 34/1/10
f 12/1/11 11/1/11 27/1/11
f 5/1/12 4/1/12 20/1/12
f 13/1/13 12/1/13 28/1/13
f 6/1/14 5/1/14 21/1/14
f 14/1/15 13/1/15 29/1/15
f 7/1/16 6/1/16 22/1/16
f 15/1/17 14/1/17 30/1/17
f 8/1/18 7/1/18 23/1/18
f 16/1/19 15/1/19 31/1/19
f 4/1/1 2/1/1 3/1/1
f 2/1/1 17/1/1 1/1/1
f 17/1/1 15/1/1 16/1/1
f 15/1/1 13/1/1 14/1/1
f 13/1/1 11/1/1 12/1/1
f 11/1/1 9/1/1 10/1/1
f 9/1/1 7/1/1 8/1/1
f 7/1/1 5/1/1 6/1/1
f 5/1/1 2/1/1 4/1/1
f 2/1/1 15/1/1 17/1/1
f 15/1/1 11/1/1 13/1/1
f 11/1/1 7/1/1 9/1/1
f 7/1/1 2/1/1 5/1/1
f 2/1/1 11/1/1 15/1/1
f 19/1/2 20/1/2 18/1/2
f 20/1/2 22/1/2 21/1/2
f 22/1/2 24/1/2 23/1/2
f 24/1/2 26/1/2 25/1/2
f 26/1/2 28/1/2 27/1/2
f 28/1/2 30/1/2 29/1/2
f 30/1/2 32/1/2 31/1/2
f 32/1/2 34/1/2 33/1/2
f 34/1/2 20/1/2 19/1/2
f 20/1/2 24/1/2 22/1/2
f 24/1/2 28/1/2 26/1/2
f 28/1/2 32/1/2 30/1/2
f 32/1/2 20/1/2 34/1/2
f 20/1/2 28/1/2 24/1/2
f 9/1/3 24/1/3 25/1/3
f 17/1/4 32/1/4 33/1/4
f 10/1/5 25/1/5 26/1/5
f 3/1/6 19/1/6 18/1/6
f 1/1/7 33/1/7 34/1/7
f 11/1/8 26/1/8 27/1/8
f 4/1/9 18/1/9 20/1/9
f 2/1/10 34/1/10 19/1/10
f 12/1/11 27/1/11 28/1/11
f 5/1/12 20/1/12 21/1/12
f 13/1/13 28/1/13 29/1/13
f 6/1/14 21/1/14 22/1/14
f 14/1/15 29/1/15 30/1/15
f 7/1/16 22/1/16 23/1/16
f 15/1/17 30/1/17 31/1/17
f 8/1/18 23/1/18 24/1/18
f 16/1/19 31/1/19 32/1/19
