# Blender 4.4.3
# www.blender.org
o Circle.002
v 0.001928 0.565193 -0.466664
v 0.001928 1.035022 0.060103
v 0.070780 1.030508 0.055042
v 0.136986 1.017140 0.040054
v 0.198003 0.995432 0.015715
v 0.251483 0.966217 -0.017040
v 0.295374 0.930619 -0.056952
v 0.327988 0.890005 -0.102488
v 0.348071 0.845937 -0.151897
v 0.354853 0.800108 -0.203280
v 0.348071 0.754278 -0.254664
v 0.327988 0.710210 -0.304073
v 0.295374 0.669596 -0.349609
v 0.251483 0.633998 -0.389521
v 0.198003 0.604783 -0.422276
v 0.136986 0.583075 -0.446615
v 0.070780 0.569707 -0.461603
v 0.001928 0.597565 -0.430369
v 0.001928 1.002933 0.024126
v 0.118456 0.987505 0.006827
v 0.061334 0.999039 0.019759
v 0.061334 0.601459 -0.426003
v 0.118456 0.612993 -0.413071
v 0.171101 0.968775 -0.014173
v 0.255113 0.912854 -0.076870
v 0.217244 0.943568 -0.042434
v 0.306431 0.800249 -0.203122
v 0.300580 0.839791 -0.158788
v 0.300580 0.760707 -0.247456
v 0.283252 0.877813 -0.116158
v 0.171101 0.631723 -0.392071
v 0.255113 0.687644 -0.329374
v 0.283252 0.722685 -0.290086
v 0.217244 0.656930 -0.363810
vn -0.0000 0.7463 -0.6656
vn -1.0000 -0.0000 -0.0000
vn 1.0000 -0.0000 -0.0000
vt 0.000000 0.000000
s 0
f 2/1/1 4/1/1 21/1/1
f 10/1/1 32/1/1 33/1/1
f 21/1/1 19/1/1 2/1/1
f 2/1/1 3/1/1 4/1/1
f 4/1/1 20/1/1 21/1/1
f 24/1/1 20/1/1 4/1/1
f 4/1/1 5/1/1 6/1/1
f 6/1/1 7/1/1 8/1/1
f 8/1/1 9/1/1 10/1/1
f 10/1/1 11/1/1 12/1/1
f 12/1/1 13/1/1 14/1/1
f 14/1/1 15/1/1 16/1/1
f 16/1/1 17/1/1 1/1/1
f 1/1/2 2/1/2 19/1/2
f 1/1/3 19/1/3 18/1/3
f 14/1/1 16/1/1 1/1/1
f 10/1/1 12/1/1 14/1/1
f 6/1/1 8/1/1 10/1/1
f 24/1/1 4/1/1 6/1/1
f 26/1/1 24/1/1 6/1/1
f 1/1/1 18/1/1 22/1/1
f 1/1/1 22/1/1 23/1/1
f 25/1/1 26/1/1 6/1/1
f 30/1/1 25/1/1 6/1/1
f 14/1/1 1/1/1 23/1/1
f 14/1/1 23/1/1 31/1/1
f 30/1/1 6/1/1 10/1/1
f 28/1/1 30/1/1 10/1/1
f 14/1/1 31/1/1 34/1/1
f 14/1/1 34/1/1 32/1/1
f 27/1/1 28/1/1 10/1/1
f 29/1/1 27/1/1 10/1/1
f 10/1/1 14/1/1 32/1/1
f 33/1/1 29/1/1 10/1/1
